<svg aria-hidden="true" style="position:absolute;width:0;height:0;overflow:hidden" xmlns="http://www.w3.org/2000/svg"><defs><symbol id="icon-bookshelf" viewBox="0 0 178 32"><path d="M22.176 8.533c0-4.731-3.497-7.406-9.545-7.406H0v29.417h13.33c6.089 0 9.998-2.921 9.998-8.599 0-4.402-2.633-6.665-5.719-7.2v-.082c2.427-.823 4.567-2.51 4.567-6.13zm-17.28 4.772V5.282h7.858c2.921 0 4.526 1.44 4.526 4.032s-1.317 3.991-4.814 3.991h-7.57zm0 3.662h8.599c3.086 0 4.937 1.687 4.937 4.69 0 2.757-1.275 4.731-5.472 4.731H4.896v-9.422zM35.89 31.161c-6.583 0-10.574-4.567-10.574-11.109S29.307 8.943 35.89 8.943s10.574 4.567 10.574 11.109-3.991 11.109-10.574 11.109zm0-3.538c4.114 0 6.254-3.25 6.254-7.57 0-4.361-2.139-7.57-6.254-7.57s-6.254 3.209-6.254 7.57c0 4.32 2.139 7.57 6.254 7.57zM58.912 31.161c-6.583 0-10.574-4.567-10.574-11.109S52.329 8.943 58.912 8.943s10.574 4.567 10.574 11.109-3.991 11.109-10.574 11.109zm0-3.538c4.114 0 6.254-3.25 6.254-7.57 0-4.361-2.139-7.57-6.254-7.57s-6.254 3.209-6.254 7.57c0 4.32 2.139 7.57 6.254 7.57zM72.472 1.127v29.417h4.32v-7.611l2.921-2.757 6.624 10.368h5.184l-8.846-13.207 7.982-7.817H85.35l-8.558 8.434V1.127h-4.32zM101.935 17.831c-3.045-.699-5.39-.864-5.39-3.003 0-1.481 1.399-2.469 3.991-2.469 3.374 0 4.197 1.687 4.485 3.333h4.197c-.288-3.662-3.003-6.747-8.722-6.747-5.266 0-8.311 2.757-8.311 6.213 0 4.773 4.526 5.431 7.858 6.213 3.086.741 5.595.946 5.595 3.579 0 1.317-1.275 2.798-4.279 2.798-4.443 0-5.431-1.934-5.637-4.197h-4.197c.206 4.443 3.127 7.611 9.915 7.611 5.102 0 8.558-2.51 8.558-6.542 0-5.019-4.197-5.883-8.064-6.789zM124.123 8.944c-3.538 0-5.719 1.646-6.83 3.291h-.082V1.126h-4.32v29.417h4.32V17.748c0-3.127 2.263-5.143 5.431-5.143 3.003 0 4.197 1.81 4.197 4.649v13.289h4.361V16.02c0-4.814-3.086-7.077-7.077-7.077zM144.448 27.623c-3.826 0-6.089-2.921-6.089-6.459h16.128c0-7.488-3.333-12.219-10.121-12.219-6.336 0-10.327 4.279-10.327 11.109 0 6.583 3.991 11.109 10.533 11.109 5.39 0 8.517-3.045 9.586-7.035h-4.32c-.37 1.275-1.81 3.497-5.39 3.497zm-.082-15.264c3.497 0 5.801 2.345 5.801 5.595h-11.808c0-3.25 2.51-5.595 6.007-5.595zM157.531 1.127v29.417h4.361V1.127h-4.361zM176.003 4.665V1.127a15.12 15.12 0 0 0-2.88-.288c-3.456 0-5.349 1.563-5.349 6.007V9.52h-3.003v3.538h3.003v17.486h4.361V13.058h3.867V9.52h-3.867V7.216c0-2.386 1.07-2.674 3.867-2.551z"/></symbol><symbol id="icon-logo" viewBox="0 0 32 32"><path fill="#f6f6f6" style="fill:var(--color1, #f6f6f6)" d="m0 0 16.343 16.171L32 32V0H0z"/><path fill="#f6f6f6" style="fill:var(--color1, #f6f6f6)" d="M4.457 4.229 16.4 16.058l11.257 11.486h-23.2V4.23z"/><path fill="#4f2ee8" style="fill:var(--color2, #4f2ee8)" d="M27.733 27.618 15.79 15.789 4.533 4.303h23.2v23.314z"/><path fill="#4f2ee8" style="fill:var(--color2, #4f2ee8)" d="m9.257 9.029 13.6 13.6h-13.6v-13.6z"/><path fill="#f6f6f6" style="fill:var(--color1, #f6f6f6)" d="m9.257 9.029 13.6 13.6v-13.6h-13.6z"/></symbol><symbol id="icon-mobile-close" viewBox="0 0 32 32"><path d="M7.626 6.245c-.291.085-.749.427-1.029.774-.432.533-.509 1.054-.24 1.616.088.184 1.011 1.143 3.665 3.806l3.547 3.56-3.551 3.56c-3.907 3.918-3.806 3.799-3.805 4.44 0 .449.157.77.586 1.199.429.43.75.586 1.199.586.634 0 .526.093 4.44-3.808l3.56-3.547 3.56 3.547c3.914 3.901 3.806 3.808 4.44 3.808.449 0 .77-.157 1.199-.586.43-.429.586-.75.586-1.199 0-.634.093-.526-3.808-4.44l-3.547-3.56 3.547-3.56c3.901-3.914 3.808-3.806 3.808-4.44 0-.449-.157-.77-.586-1.199-.429-.43-.75-.586-1.199-.586-.634 0-.526-.093-4.44 3.808l-3.56 3.547-3.56-3.547c-2.721-2.712-3.619-3.576-3.814-3.67-.29-.138-.728-.186-1-.109z"/></symbol><symbol id="icon-mobile-menu-open" viewBox="0 0 32 32"><path d="M3.498 6.936c-.218.065-.503.358-.566.582a2.345 2.345 0 0 0 .003.98l-.003-.016c.066.235.349.515.591.585.25.072 24.699.072 24.959 0 .235-.066.515-.349.585-.591a2.282 2.282 0 0 0-.002-.969l.003.015c-.07-.242-.35-.525-.585-.591-.239-.066-24.762-.064-24.984.003zm0 5.333c-.218.065-.503.359-.566.583a2.345 2.345 0 0 0 .003.98l-.003-.016c.066.235.349.515.591.585.25.072 19.367.071 19.625-.001.235-.065.517-.349.585-.59a2.275 2.275 0 0 0-.002-.969l.003.015c-.069-.241-.35-.525-.585-.59-.238-.066-19.429-.064-19.65.002zm0 5.333c-.218.065-.503.359-.566.582a2.345 2.345 0 0 0 .003.98l-.003-.016c.066.235.349.517.591.585.25.072 24.699.072 24.959 0 .235-.065.515-.349.585-.59a2.29 2.29 0 0 0 0-.954c-.07-.241-.35-.525-.585-.59-.239-.066-24.762-.064-24.984.002zm0 5.334c-.218.065-.503.358-.566.582a2.345 2.345 0 0 0 .003.98l-.003-.016c.066.235.349.515.591.585.25.072 19.367.071 19.625 0 .235-.066.517-.349.585-.591a2.282 2.282 0 0 0-.002-.969l.003.015c-.069-.242-.35-.525-.585-.591-.238-.066-19.429-.063-19.65.003z"/></symbol><symbol id="icon-bag" viewBox="0 0 25 32"><path d="M22.815 8.593h-4.444V7.112a5.93 5.93 0 0 0-5.926-5.926 5.93 5.93 0 0 0-5.926 5.926v1.481H2.075a1.482 1.482 0 0 0-1.482 1.482v16.296a4.444 4.444 0 0 0 4.445 4.445h14.815a4.444 4.444 0 0 0 4.445-4.445V10.075a1.482 1.482 0 0 0-1.481-1.482zM9.482 7.111a2.962 2.962 0 0 1 5.058-2.095c.556.556.868 1.309.868 2.095v1.481H9.482V7.111zM21.334 26.37a1.478 1.478 0 0 1-1.482 1.481H5.037a1.482 1.482 0 0 1-1.482-1.481V11.555h2.963v1.481a1.482 1.482 0 1 0 2.964 0v-1.481h5.926v1.481a1.482 1.482 0 1 0 2.964 0v-1.481h2.963V26.37z"/></symbol><symbol id="icon-emblem" viewBox="0 0 20 32"><path fill="#fff" style="fill:var(--color1, #fff)" d="M9.005 30.888a8.64 8.64 0 0 1-3.414-5.351H0V2.42c2.991 1.443 5.153 4.599 5.388 7.876l.846 6.493-.407-.045c-.893 0-1.676.812-1.676 1.608 0 .752.595 1.383 1.378 1.548l1.018.226c1.676-3.051 2.631-6.042 2.631-8.973 0-2.645-.36-5.291-.423-7.996 0-1.202.486-2.3 1.253-3.156.783.857 1.253 1.954 1.253 3.156 0 2.705-.423 5.351-.423 7.996 0 2.931.955 5.922 2.631 8.973l1.018-.226c.783-.165 1.378-.812 1.378-1.548 0-.812-.783-1.608-1.676-1.608l-.423.06.846-6.493c.423-3.277 2.396-6.448 5.388-7.876v23.117h-5.576c-.423 2.179-1.613 4.148-3.414 5.351-.423.286-.783.631-1.018 1.097-.219-.466-.579-.812-.987-1.112zM2.647 17.556c.235-.857.893-1.608 1.738-2.074l-.658-5.351a8.288 8.288 0 0 0-2.036-4.374v11.784h.955v.015zm2.819 6.373c0-.812.125-1.548.298-2.3l-.783-.18c-1.143-.346-2.036-1.203-2.334-2.3h-.955v4.78h3.774zm3.712 0c0-.977-.783-1.834-1.801-1.954-.172.631-.298 1.263-.298 1.954h2.099zm0 1.623H7.314c.298 1.263.955 2.42 1.864 3.397v-3.397zm2.631-5.005c-.72-1.262-1.378-2.585-1.801-3.968-.423 1.383-1.081 2.706-1.801 3.968.72.165 1.316.631 1.801 1.157.486-.526 1.081-.992 1.801-1.157zm1.143 3.382c0-.691-.125-1.323-.297-1.954-1.018.12-1.801.977-1.801 1.954h2.099zm-.235 1.623h-1.864v3.397c.908-.992 1.566-2.134 1.864-3.397zm5.623-1.623v-4.78h-.955c-.298 1.097-1.206 1.954-2.334 2.3l-.783.18c.172.752.298 1.488.298 2.3h3.774zm0-6.373V5.757c-1.081 1.202-1.864 2.706-2.036 4.374l-.658 5.351c.846.466 1.504 1.203 1.739 2.074h.955z"/></symbol><symbol id="icon-btn-arrow" viewBox="0 0 55 32"><path d="M24.724 19.048a3.812 3.812 0 0 0 5.41 0L47.582 1.562A3.822 3.822 0 0 1 50.287.435 3.816 3.816 0 0 1 54.1 4.248a3.808 3.808 0 0 1-1.108 2.686L35.506 24.42a11.43 11.43 0 0 1-16.152 0L1.868 6.934a3.808 3.808 0 0 1-.822-4.129A3.818 3.818 0 0 1 3.108.729a3.8 3.8 0 0 1 2.93 0c.464.193.886.477 1.24.834l17.448 17.486z"/></symbol><symbol id="icon-logout-arrow" viewBox="0 0 43 32"><path fill="#4f2ee8" style="fill:var(--color1, #4f2ee8)" d="M24.724 19.048a3.812 3.812 0 0 0 5.41 0L47.582 1.562A3.822 3.822 0 0 1 50.287.435 3.816 3.816 0 0 1 54.1 4.248a3.808 3.808 0 0 1-1.108 2.686L35.506 24.42a11.43 11.43 0 0 1-16.152 0L1.868 6.934a3.808 3.808 0 0 1-.822-4.129A3.818 3.818 0 0 1 3.108.729a3.8 3.8 0 0 1 2.93 0c.464.193.886.477 1.24.834l17.448 17.486z"/></symbol><symbol id="icon-btn-arrow" viewBox="0 0 55 32"><path fill="#4f2ee8" style="fill:var(--color1, #4f2ee8)" d="M24.724 19.048a3.812 3.812 0 0 0 5.41 0L47.582 1.562A3.822 3.822 0 0 1 50.287.435 3.816 3.816 0 0 1 54.1 4.248a3.808 3.808 0 0 1-1.108 2.686L35.506 24.42a11.43 11.43 0 0 1-16.152 0L1.868 6.934a3.808 3.808 0 0 1-.822-4.129A3.818 3.818 0 0 1 3.108.729a3.8 3.8 0 0 1 2.93 0c.464.193.886.477 1.24.834l17.448 17.486z"/></symbol><symbol id="icon-arrow" viewBox="0 0 43 32">
<path fill="none" stroke="#eac645" style="stroke: var(--color1, #eac645)" stroke-linejoin="round" stroke-linecap="round" stroke-miterlimit="4" stroke-width="5.3333" d="M3.555 16h35.555M39.11 16l-13.333-13.333M39.11 16l-13.333 13.333"></path>
</symbol><symbol id="icon-triangle" viewBox="0 0 60 32"><path fill="#fff" style="fill:var(--color1, #fff)" d="M3.168 3h53.667L32.712 30.27c-.719.812-1.694 1.269-2.71 1.269s-1.991-.456-2.71-1.269L3.169 3z"/></symbol>
<symbol id="icon-close" viewBox="0 0 32 32">
<path d="M2.901 0.844c-0.866 0.324-1.799 1.28-2.076 2.132-0.149 0.46-0.092 1.028 0.16 1.543 0.197 0.405 0.311 0.524 5.728 5.948l5.525 5.532-5.525 5.532c-5.454 5.461-5.529 5.54-5.733 5.957-0.197 0.407-0.206 0.446-0.206 0.96 0 0.501 0.012 0.56 0.176 0.887 0.354 0.704 1.010 1.36 1.714 1.714 0.327 0.164 0.386 0.176 0.887 0.176 0.514 0 0.553-0.009 0.96-0.206 0.418-0.204 0.496-0.279 5.957-5.733l5.532-5.525 5.532 5.525c5.461 5.454 5.54 5.529 5.957 5.733 0.407 0.197 0.446 0.206 0.96 0.206 0.501 0 0.56-0.012 0.887-0.176 0.501-0.266 0.924-0.613 1.267-1.028l0.006-0.007c0.146-0.18 0.343-0.485 0.441-0.679 0.164-0.327 0.176-0.386 0.176-0.887 0-0.514-0.009-0.553-0.206-0.96-0.204-0.418-0.279-0.496-5.733-5.957l-5.525-5.532 5.525-5.532c5.454-5.461 5.529-5.54 5.733-5.957 0.197-0.407 0.206-0.446 0.206-0.96 0-0.501-0.012-0.56-0.176-0.887-0.39-0.736-0.977-1.324-1.692-1.703l-0.022-0.011c-0.327-0.164-0.386-0.176-0.887-0.176-0.514 0-0.553 0.009-0.96 0.206-0.418 0.204-0.496 0.279-5.957 5.733l-5.532 5.525-5.532-5.525c-5.438-5.429-5.541-5.531-5.952-5.73-0.239-0.14-0.527-0.223-0.833-0.223-0.016 0-0.033 0-0.049 0.001l0.002-0c-0.356-0.012-0.526 0.007-0.734 0.084z"></path>
</symbol></defs></svg>